<svg width="960" height="892" viewBox="0 0 960 892" fill="none" xmlns="http://www.w3.org/2000/svg">
<path opacity="0.6" d="M690.985 778.5C812.222 806.998 923.248 750 955.668 668.5C988.089 587 830.97 423 735.645 333C640.32 243 656.732 98.3526 446.736 91.1778C303.719 86.2915 149.45 182.668 80.0101 312.075C10.5704 441.481 -32.2581 600.737 30.4994 715.456C93.2569 830.175 236.272 809.292 389.005 768.879C504.69 738.268 589.045 754.539 690.985 778.5Z" fill="#F0F8FF"/>
<path d="M804 720L93 720" stroke="#220D4E" stroke-width="2" stroke-linecap="round" stroke-linejoin="round"/>
<path d="M836 720.344H824.621" stroke="#220D4E" stroke-width="2" stroke-linecap="round" stroke-linejoin="round"/>
<path d="M208.631 348.232C211.615 347.941 213.143 352.555 215.397 357.321C216.655 359.955 219.76 370.049 220.269 369.661C219.077 365.364 215.095 340.679 217.014 332.535C217.597 330.042 221.908 328.424 223.555 328.953C226.851 330.011 231.671 361.184 232.618 367.3C233.116 370.623 231.209 346.347 231.231 340.21C231.245 335.169 231.511 329.47 233.001 325.981C234.044 323.518 237.768 323.802 239.432 324.079C243.383 324.758 244.346 336.106 244.729 341.826C244.977 345.765 246.728 357.923 247.033 365.495C248.351 365.264 248.544 365.53 249.768 365.462C248.988 359.378 248.9 340.093 249.102 333.778C249.246 329.316 250.983 325.252 256.505 326.666C260.33 327.653 264.291 349.109 265.082 356.333C265.36 358.84 265.832 367.709 265.714 371.139C266.169 371.57 266.604 371.999 267.035 372.47C267.935 370.609 271.319 360.957 278.794 355.959C280.156 355.056 285.65 357.543 285.456 360.189C285.06 365.289 280.961 375.59 279.018 379.914C278.01 382.148 276.001 386.51 273.798 391.282C273.796 391.957 273.774 392.609 273.73 393.281C272.716 408.824 263.68 416.168 248.764 418.236C231.153 420.676 221.988 410.019 218.115 394.938C217.109 391.013 213.36 380.159 212.764 378.665C210.776 373.684 205.973 360.294 204.846 351.783C204.47 349.164 207.361 348.361 208.631 348.232Z" fill="#8A5353" stroke="#220D4E" stroke-width="2" stroke-miterlimit="10" stroke-linecap="round" stroke-linejoin="round"/>
<path d="M266.735 372.892C266.735 372.892 255.998 369.874 244.316 381.349" stroke="#220D4E" stroke-width="2" stroke-miterlimit="10" stroke-linecap="round" stroke-linejoin="round"/>
<path d="M260.797 367.231C260.183 366.98 238.445 361.768 223.286 371.757" stroke="#220D4E" stroke-width="2" stroke-miterlimit="10" stroke-linecap="round" stroke-linejoin="round"/>
<path d="M264.508 395.571L310.034 500.576C310.034 500.576 349.322 504.011 356.364 506.078L361.333 571.844L274.35 532.551C274.35 532.551 227.739 419.278 226.055 405.708C224 389.185 264.508 395.571 264.508 395.571Z" fill="#8A5353"/>
<path d="M274.106 533.165L226.133 410.599" stroke="#220D4E" stroke-width="2" stroke-linecap="round" stroke-linejoin="round"/>
<path d="M310.566 501.032L269.781 407.102" stroke="#220D4E" stroke-width="2" stroke-linecap="round" stroke-linejoin="round"/>
<path d="M319.674 553.52L274.107 533.165" stroke="#220D4E" stroke-width="2" stroke-linecap="round" stroke-linejoin="round"/>
<path d="M246.856 415.596C246.856 415.596 254.104 419.076 263.836 412.25" stroke="#220D4E" stroke-width="2" stroke-miterlimit="10" stroke-linecap="round" stroke-linejoin="round"/>
<path d="M310.861 501.311L299.414 510.953" stroke="#220D4E" stroke-width="2" stroke-linecap="round" stroke-linejoin="round"/>
<path d="M339.382 502.356L310.566 500.414" stroke="#220D4E" stroke-width="2" stroke-linecap="round" stroke-linejoin="round"/>
<path fill-rule="evenodd" clip-rule="evenodd" d="M731.577 542.462C734.877 539.742 737.646 537.46 739.812 538.782C740.896 539.449 743.142 541.423 741.658 543.596C736.921 550.697 726.747 560.552 722.781 564.13C721.591 565.204 713.473 573.254 710.852 576.318C705.96 582.031 700.403 586.27 694.292 587.996C694.156 588.27 694.015 588.546 693.868 588.825C682.542 602.854 594.659 687.317 587.147 686.727C579.636 686.138 544.386 625.822 544.386 625.822L549.932 541.343C564.137 523.51 598.877 624.996 598.877 624.996L659.258 564.325C658.814 560.185 659.553 555.648 661.614 550.644C661.869 550.025 662.135 549.434 662.429 548.831C662.537 543.616 662.641 538.851 662.714 536.42C662.86 531.717 663.686 520.744 665.562 516.023C666.545 513.579 672.569 513.75 673.398 515.148C677.373 521.916 676.947 530.511 676.779 533.899C676.755 534.37 676.737 534.741 676.736 534.992C677.33 534.76 677.908 534.566 678.506 534.38C679.9 531.269 684.206 523.563 685.553 521.447C689.424 515.348 702.373 497.932 706.241 498.716C711.82 499.857 711.602 504.237 709.779 508.28C707.197 514.001 698.679 531.166 695.315 536.253C695.761 536.5 696.071 536.618 696.359 536.727C696.764 536.881 697.126 537.018 697.758 537.473C699.995 533.344 703.517 527.87 706.324 523.507C708.019 520.873 709.453 518.644 710.186 517.362C713.033 512.426 718.864 502.722 722.71 503.836C724.326 504.313 727.796 505.679 727.656 508.331C727.467 512.091 725.213 517.291 723.019 521.793C721.559 524.796 717.198 532.402 713.864 538.216C711.111 543.018 709.059 546.597 709.919 545.354L709.936 545.33C713.502 540.229 731.423 514.602 734.841 515.091C736.552 515.336 739.717 518.655 739.15 521.132C737.31 529.232 722.93 549.519 719.979 552.833C720.147 553.165 722.676 550.692 725.205 548.218C727.006 546.456 728.807 544.695 729.756 543.945C730.38 543.449 730.987 542.948 731.577 542.462Z" fill="#8A5353"/>
<path d="M739.812 538.782L740.34 537.932L740.337 537.931L739.812 538.782ZM731.577 542.462L732.215 543.23L731.577 542.462ZM741.658 543.596L740.83 543.036L740.824 543.045L741.658 543.596ZM722.781 564.13L723.453 564.869L723.453 564.869L722.781 564.13ZM710.852 576.318L711.614 576.965L711.615 576.964L710.852 576.318ZM694.292 587.996L694.021 587.036C693.748 587.113 693.52 587.302 693.394 587.556L694.292 587.996ZM693.868 588.825L694.648 589.449C694.689 589.398 694.725 589.344 694.755 589.287L693.868 588.825ZM587.147 686.727L587.066 687.722L587.147 686.727ZM544.386 625.822L543.386 625.76C543.373 625.958 543.419 626.155 543.519 626.326L544.386 625.822ZM549.932 541.343L549.148 540.725C549.021 540.884 548.946 541.078 548.932 541.281L549.932 541.343ZM598.877 624.996L597.928 625.32C598.04 625.647 598.313 625.892 598.651 625.969C598.989 626.046 599.343 625.943 599.588 625.697L598.877 624.996ZM659.258 564.325L659.969 565.026C660.181 564.812 660.286 564.515 660.254 564.216L659.258 564.325ZM661.614 550.644L660.687 550.268L661.614 550.644ZM662.429 548.831L663.33 549.264C663.393 549.135 663.428 548.993 663.431 548.849L662.429 548.831ZM662.714 536.42L661.712 536.391L661.712 536.393L662.714 536.42ZM665.562 516.023L664.632 515.654L664.63 515.658L665.562 516.023ZM673.398 515.148L674.264 514.643L674.262 514.639L673.398 515.148ZM676.779 533.899L677.78 533.945L677.78 533.945L676.779 533.899ZM676.736 534.992L675.734 534.992C675.733 535.322 675.896 535.631 676.169 535.816C676.443 536.002 676.791 536.041 677.1 535.921L676.736 534.992ZM678.506 534.38L678.802 535.333C679.078 535.247 679.303 535.047 679.421 534.785L678.506 534.38ZM685.553 521.447L686.399 521.98L686.4 521.979L685.553 521.447ZM706.241 498.716L706.445 497.738L706.444 497.738L706.241 498.716ZM709.779 508.28L710.693 508.687L710.693 508.687L709.779 508.28ZM695.315 536.253L694.479 535.706C694.325 535.938 694.276 536.223 694.341 536.492C694.407 536.761 694.583 536.99 694.826 537.125L695.315 536.253ZM696.359 536.727L696.718 535.795L696.359 536.727ZM697.758 537.473L697.17 538.282C697.404 538.45 697.699 538.51 697.981 538.445C698.263 538.38 698.503 538.198 698.64 537.945L697.758 537.473ZM706.324 523.507L705.48 522.971L705.48 522.971L706.324 523.507ZM710.186 517.362L709.317 516.866L709.315 516.87L710.186 517.362ZM722.71 503.836L722.998 502.879L722.993 502.878L722.71 503.836ZM727.656 508.331L726.655 508.281L726.655 508.283L727.656 508.331ZM723.019 521.793L722.117 521.359L722.117 521.36L723.019 521.793ZM713.864 538.216L714.734 538.709L713.864 538.216ZM709.919 545.354L709.096 544.786L709.094 544.79L709.919 545.354ZM709.936 545.33L709.114 544.762L709.113 544.762L709.936 545.33ZM734.841 515.091L734.696 516.078L734.696 516.078L734.841 515.091ZM739.15 521.132L738.173 520.913L738.172 520.915L739.15 521.132ZM719.979 552.833L719.23 552.172C718.957 552.479 718.899 552.919 719.084 553.283L719.979 552.833ZM725.205 548.218L724.503 547.507L725.205 548.218ZM729.756 543.945L730.378 544.726L730.381 544.724L729.756 543.945ZM740.337 537.931C738.788 536.985 737.121 537.429 735.642 538.23C734.162 539.032 732.562 540.356 730.939 541.694L732.215 543.23C733.892 541.848 735.326 540.671 736.597 539.982C737.869 539.293 738.67 539.256 739.286 539.633L740.337 537.931ZM742.486 544.155C742.971 543.445 743.177 542.706 743.15 541.981C743.123 541.27 742.875 540.636 742.558 540.109C741.935 539.076 740.96 538.314 740.34 537.932L739.283 539.631C739.748 539.917 740.438 540.475 740.838 541.139C741.032 541.461 741.136 541.77 741.147 542.061C741.157 542.337 741.087 542.66 740.83 543.036L742.486 544.155ZM723.453 564.869C727.42 561.289 737.68 551.362 742.493 544.146L740.824 543.045C736.163 550.033 726.073 559.815 722.109 563.392L723.453 564.869ZM711.615 576.964C714.201 573.941 722.287 565.921 723.453 564.869L722.109 563.392C720.896 564.486 712.746 572.568 710.09 575.673L711.615 576.964ZM694.563 588.956C700.933 587.157 706.648 582.763 711.614 576.965L710.09 575.672C705.272 581.298 699.873 585.384 694.021 587.036L694.563 588.956ZM694.755 589.287C694.906 589.001 695.051 588.717 695.191 588.436L693.394 587.556C693.262 587.822 693.124 588.091 692.981 588.364L694.755 589.287ZM587.066 687.722C587.519 687.758 587.997 687.633 588.429 687.474C588.882 687.306 589.392 687.058 589.947 686.75C591.057 686.132 592.428 685.221 594.014 684.071C597.189 681.768 601.305 678.443 606.048 674.41C615.538 666.34 627.595 655.386 639.763 643.984C664.072 621.204 688.932 596.529 694.648 589.449L693.087 588.201C687.478 595.15 662.734 619.721 638.391 642.533C626.233 653.926 614.203 664.854 604.749 672.894C600.019 676.915 595.949 680.202 592.836 682.459C591.277 683.59 589.98 684.447 588.972 685.009C588.467 685.29 588.056 685.485 587.736 685.603C587.576 685.662 587.452 685.697 587.36 685.716C587.264 685.735 587.225 685.732 587.229 685.733L587.066 687.722ZM544.386 625.822C543.519 626.326 543.52 626.326 543.52 626.327C543.52 626.327 543.521 626.328 543.521 626.329C543.522 626.331 543.524 626.333 543.526 626.337C543.53 626.344 543.537 626.356 543.545 626.37C543.562 626.399 543.588 626.443 543.622 626.5C543.689 626.615 543.788 626.784 543.919 627.006C544.179 627.449 544.562 628.098 545.052 628.924C546.032 630.576 547.439 632.937 549.152 635.772C552.577 641.44 557.223 649.007 562.106 656.594C566.985 664.176 572.112 671.797 576.497 677.566C578.687 680.447 580.71 682.891 582.437 684.641C583.3 685.515 584.11 686.239 584.847 686.76C585.558 687.262 586.319 687.663 587.066 687.722L587.229 685.733C587.037 685.718 586.642 685.578 586.011 685.132C585.407 684.705 584.69 684.073 583.869 683.241C582.231 681.58 580.268 679.215 578.097 676.359C573.76 670.653 568.666 663.084 563.794 655.514C558.925 647.948 554.29 640.399 550.87 634.74C549.161 631.911 547.756 629.555 546.779 627.906C546.29 627.082 545.908 626.435 545.649 625.994C545.519 625.773 545.42 625.604 545.353 625.491C545.32 625.434 545.295 625.391 545.278 625.362C545.27 625.348 545.263 625.337 545.259 625.329C545.257 625.326 545.255 625.323 545.254 625.321C545.254 625.321 545.253 625.32 545.253 625.319C545.253 625.319 545.253 625.319 544.386 625.822ZM548.932 541.281L543.386 625.76L545.386 625.885L550.933 541.406L548.932 541.281ZM598.877 624.996C599.825 624.672 599.825 624.672 599.825 624.671C599.825 624.67 599.824 624.669 599.824 624.667C599.823 624.664 599.821 624.659 599.819 624.653C599.814 624.64 599.808 624.622 599.8 624.597C599.783 624.548 599.758 624.475 599.724 624.379C599.658 624.186 599.559 623.902 599.43 623.531C599.171 622.79 598.79 621.707 598.301 620.334C597.321 617.589 595.907 613.689 594.165 609.065C590.683 599.819 585.888 587.669 580.646 576.071C575.412 564.492 569.701 553.392 564.376 546.292C561.731 542.765 559.085 540.091 556.538 538.913C555.24 538.312 553.909 538.073 552.601 538.371C551.291 538.671 550.14 539.479 549.148 540.725L550.717 541.962C551.501 540.978 552.285 540.49 553.045 540.316C553.807 540.142 554.678 540.255 555.69 540.723C557.761 541.681 560.16 544.01 562.769 547.489C567.953 554.402 573.59 565.33 578.817 576.894C584.035 588.438 588.813 600.545 592.288 609.77C594.025 614.382 595.436 618.271 596.412 621.007C596.9 622.374 597.279 623.454 597.536 624.191C597.665 624.559 597.763 624.842 597.829 625.032C597.862 625.128 597.886 625.2 597.903 625.248C597.911 625.272 597.918 625.29 597.922 625.303C597.924 625.309 597.925 625.313 597.926 625.316C597.927 625.318 597.927 625.319 597.927 625.319C597.928 625.32 597.928 625.32 598.877 624.996ZM658.547 563.624L598.166 624.295L599.588 625.697L659.969 565.026L658.547 563.624ZM660.687 550.268C658.577 555.39 657.796 560.095 658.261 564.433L660.254 564.216C659.832 560.275 660.529 555.906 662.541 551.02L660.687 550.268ZM661.527 548.398C661.225 549.019 660.95 549.629 660.687 550.268L662.541 551.02C662.788 550.421 663.045 549.849 663.33 549.264L661.527 548.398ZM661.712 536.393C661.639 538.829 661.535 543.599 661.426 548.813L663.431 548.849C663.539 543.632 663.643 538.872 663.715 536.447L661.712 536.393ZM664.63 515.658C663.638 518.154 662.952 522.197 662.494 526.115C662.031 530.067 661.786 534.014 661.712 536.391L663.715 536.448C663.788 534.122 664.029 530.232 664.485 526.341C664.944 522.417 665.609 518.613 666.494 516.388L664.63 515.658ZM674.262 514.639C674.032 514.251 673.676 513.988 673.346 513.808C673.005 513.623 672.613 513.485 672.209 513.384C671.402 513.181 670.439 513.1 669.49 513.148C668.543 513.196 667.547 513.376 666.692 513.742C665.847 514.103 665.015 514.7 664.632 515.654L666.492 516.392C666.6 516.123 666.89 515.826 667.478 515.575C668.054 515.329 668.801 515.181 669.586 515.141C670.369 515.102 671.13 515.172 671.716 515.319C672.009 515.392 672.231 515.478 672.382 515.56C672.543 515.648 672.558 515.695 672.535 515.657L674.262 514.639ZM677.78 533.945C677.946 530.588 678.408 521.7 674.264 514.643L672.533 515.653C676.337 522.132 675.947 530.434 675.778 533.852L677.78 533.945ZM677.738 534.992C677.739 534.771 677.756 534.428 677.78 533.945L675.778 533.852C675.755 534.312 675.735 534.712 675.734 534.992L677.738 534.992ZM678.21 533.428C677.598 533.618 676.996 533.819 676.372 534.063L677.1 535.921C677.664 535.7 678.218 535.514 678.802 535.333L678.21 533.428ZM684.707 520.915C683.341 523.061 679.01 530.81 677.591 533.976L679.421 534.785C680.791 531.727 685.072 524.065 686.399 521.98L684.707 520.915ZM706.444 497.738C705.587 497.564 704.685 497.911 703.908 498.349C703.087 498.813 702.188 499.505 701.254 500.336C699.382 502.002 697.243 504.339 695.129 506.862C690.898 511.913 686.666 517.827 684.706 520.916L686.4 521.979C688.311 518.968 692.489 513.125 696.667 508.138C698.758 505.643 700.823 503.392 702.588 501.822C703.472 501.035 704.25 500.448 704.893 500.085C705.579 499.697 705.929 499.671 706.039 499.693L706.444 497.738ZM710.693 508.687C711.635 506.599 712.253 504.243 711.761 502.177C711.509 501.118 710.967 500.149 710.061 499.368C709.165 498.595 707.962 498.048 706.445 497.738L706.037 499.693C707.31 499.953 708.172 500.382 708.747 500.878C709.313 501.366 709.648 501.959 709.811 502.642C710.149 504.063 709.747 505.919 708.865 507.874L710.693 508.687ZM696.152 536.8C699.564 531.639 708.111 514.408 710.693 508.687L708.865 507.874C706.283 513.595 697.793 530.693 694.479 535.706L696.152 536.8ZM696.718 535.795C696.442 535.69 696.186 535.593 695.805 535.381L694.826 537.125C695.335 537.408 695.699 537.546 696 537.66L696.718 535.795ZM698.347 536.664C697.616 536.138 697.165 535.964 696.718 535.795L696 537.66C696.363 537.797 696.636 537.898 697.17 538.282L698.347 536.664ZM705.48 522.971C702.681 527.322 699.135 532.832 696.876 537.001L698.64 537.945C700.855 533.857 704.354 528.418 707.168 524.044L705.48 522.971ZM709.315 516.87C708.599 518.123 707.184 520.323 705.48 522.971L707.168 524.044C708.854 521.423 710.307 519.165 711.056 517.853L709.315 516.87ZM722.993 502.878C721.569 502.466 720.144 503.098 718.938 503.983C717.699 504.891 716.455 506.236 715.287 507.715C712.942 510.682 710.74 514.399 709.317 516.866L711.054 517.857C712.478 515.389 714.616 511.786 716.861 508.946C717.986 507.521 719.099 506.34 720.124 505.588C721.182 504.812 721.928 504.649 722.428 504.794L722.993 502.878ZM728.657 508.38C728.754 506.548 727.585 505.262 726.418 504.45C725.238 503.628 723.848 503.13 722.998 502.879L722.423 504.792C723.189 505.018 724.342 505.442 725.266 506.086C726.203 506.738 726.699 507.462 726.655 508.281L728.657 508.38ZM723.92 522.226C725.023 519.964 726.151 517.504 727.03 515.126C727.903 512.761 728.555 510.409 728.657 508.378L726.655 508.283C726.568 510.013 725.998 512.141 725.149 514.441C724.304 516.728 723.209 519.119 722.117 521.359L723.92 522.226ZM714.734 538.709C718.055 532.916 722.441 525.269 723.921 522.225L722.117 521.36C720.676 524.324 716.34 531.888 712.994 537.723L714.734 538.709ZM709.094 544.79C709.044 544.862 709.013 544.905 708.997 544.925C708.988 544.936 708.992 544.93 709.006 544.915C709.013 544.907 709.031 544.888 709.057 544.864C709.074 544.848 709.138 544.788 709.238 544.732C709.288 544.704 709.39 544.653 709.529 544.625C709.672 544.596 709.916 544.581 710.174 544.711C710.716 544.982 710.721 545.529 710.722 545.573C710.725 545.701 710.701 545.797 710.696 545.82C710.686 545.858 710.677 545.885 710.673 545.896C710.662 545.927 710.659 545.928 710.687 545.871C710.786 545.666 711.033 545.212 711.412 544.536C712.158 543.202 713.356 541.112 714.734 538.709L712.994 537.723C711.619 540.122 710.414 542.223 709.661 543.568C709.29 544.231 709.013 544.739 708.883 545.006C708.854 545.067 708.812 545.155 708.782 545.241C708.773 545.266 708.76 545.305 708.748 545.352C708.74 545.385 708.715 545.489 708.718 545.622C708.719 545.671 708.726 546.222 709.27 546.494C709.53 546.624 709.775 546.61 709.921 546.581C710.062 546.552 710.166 546.5 710.218 546.47C710.386 546.376 710.494 546.248 710.497 546.245C710.532 546.206 710.562 546.168 710.585 546.138C710.632 546.077 710.686 546.002 710.743 545.919L709.094 544.79ZM709.113 544.762L709.096 544.786L710.741 545.923L710.758 545.899L709.113 544.762ZM734.986 514.103C734.464 514.028 733.965 514.212 733.584 514.405C733.177 514.611 732.746 514.911 732.306 515.266C731.424 515.976 730.391 517 729.27 518.22C727.023 520.667 724.33 524.012 721.648 527.51C716.28 534.513 710.897 542.212 709.114 544.762L710.758 545.899C712.541 543.348 717.902 535.682 723.24 528.718C725.912 525.233 728.562 521.944 730.748 519.564C731.844 518.371 732.799 517.433 733.565 516.815C733.949 516.506 734.257 516.3 734.49 516.183C734.749 516.051 734.791 516.092 734.696 516.078L734.986 514.103ZM740.127 521.352C740.514 519.659 739.626 517.893 738.635 516.652C738.116 516.003 737.514 515.424 736.908 514.983C736.323 514.558 735.648 514.198 734.986 514.103L734.696 516.078C734.889 516.106 735.251 516.253 735.723 516.596C736.174 516.924 736.649 517.376 737.065 517.896C737.942 518.995 738.352 520.128 738.173 520.913L740.127 521.352ZM720.728 553.494C722.258 551.776 726.625 545.821 730.824 539.315C732.929 536.052 735.007 532.629 736.678 529.503C738.336 526.401 739.636 523.514 740.127 521.35L738.172 520.915C737.744 522.8 736.556 525.487 734.909 528.57C733.273 531.63 731.226 535.004 729.138 538.24C724.949 544.731 720.651 550.577 719.23 552.172L720.728 553.494ZM724.503 547.507C723.234 548.748 721.984 549.971 721.03 550.843C720.548 551.283 720.169 551.61 719.911 551.802C719.772 551.906 719.722 551.929 719.736 551.923C719.745 551.919 719.771 551.908 719.811 551.896C719.848 551.886 719.923 551.867 720.023 551.866C720.124 551.864 720.285 551.879 720.46 551.967C720.648 552.063 720.789 552.214 720.875 552.383L719.084 553.283C719.18 553.473 719.336 553.639 719.544 553.745C719.738 553.844 719.923 553.863 720.052 553.861C720.287 553.857 720.475 553.779 720.56 553.74C720.755 553.652 720.949 553.518 721.11 553.398C721.453 553.142 721.895 552.758 722.383 552.312C723.368 551.411 724.646 550.161 725.906 548.928L724.503 547.507ZM729.135 543.164C728.132 543.956 726.279 545.77 724.503 547.507L725.906 548.928C727.732 547.143 729.482 545.433 730.378 544.726L729.135 543.164ZM730.939 541.694C730.348 542.181 729.748 542.676 729.132 543.166L730.381 544.724C731.012 544.221 731.626 543.715 732.215 543.23L730.939 541.694Z" fill="#220D4E"/>
<path d="M524.974 668.755L601.662 612.617L554.785 519.186L506.768 531.268L524.974 668.755Z" fill="#FFD330"/>
<path d="M397.264 503.288L322.065 489.451L304.252 568.864L406.564 596.162L397.264 503.288Z" fill="#FFD330"/>
<path d="M554.568 519.715C554.568 519.715 512.435 491.208 460.826 491.935C409.216 492.663 376.37 506.893 376.37 506.893C376.37 506.893 376.369 585.058 376.37 638.484C376.37 670.259 384.424 701.422 384.424 701.422C384.424 701.422 386.256 715.007 386.732 718.806H540.809C546.923 718.806 547.701 689.836 547.701 630.975C547.701 575.845 554.568 519.715 554.568 519.715Z" fill="#FFD330"/>
<path d="M375.62 556.109L375.866 644.831" stroke="#220D4E" stroke-width="2" stroke-linecap="round" stroke-linejoin="round"/>
<path d="M548.364 571.416L548.365 652.482" stroke="#220D4E" stroke-width="2" stroke-linecap="round" stroke-linejoin="round"/>
<path d="M389.518 502.701L376.066 519.941" stroke="#220D4E" stroke-width="2" stroke-linecap="round" stroke-linejoin="round"/>
<path d="M395.62 505.109L390.515 525.151" stroke="#220D4E" stroke-width="2" stroke-linecap="round" stroke-linejoin="round"/>
<path d="M512.991 500.5C512.297 513.814 502.576 540.441 469.245 540.441C435.914 540.441 423.415 513.814 421.332 500.5" stroke="#220D4E" stroke-width="2" stroke-linecap="round" stroke-linejoin="round"/>
<path d="M539.145 354.747C527.666 340.668 513.926 337.886 498.111 338.74C505.986 313.68 476.648 302.2 463.637 313.27C459.083 301.939 434.454 300.035 429.792 311.418C415.307 300.387 407.427 314.568 409.445 322.379C398.614 317.288 385.522 323.682 390.343 338.28C386.816 338.721 377.567 337.841 373.11 347.253C368.653 356.665 374.478 363.44 377.499 369.161C374.841 370.603 366.802 370.917 364.508 379.523C361.755 389.849 365.185 394.039 369.344 399.756C366.007 399.481 355.77 401.413 355.716 412.508C355.658 424.532 364.136 427.143 369.14 427.863C363.334 429.541 358.206 436.724 360.46 446.542C362.715 456.36 377.272 454.613 383.075 454.163C380.453 456.689 378.864 460.95 382.381 466.209C385.899 471.469 394.188 470.95 398.633 467.065C401.317 471.007 401.113 479.901 412.831 480.612C416.525 480.836 421.552 481.79 426.076 476.39C426.865 480.134 427.876 487.609 436.971 489.627C458.366 494.374 464.028 475.741 469.612 471.239C470.549 476.251 471.956 485.174 476.398 489.637C481.393 494.656 490.16 491.002 492.897 488.044C494.595 492.03 495.036 498.293 501.51 503.244C505.959 506.646 515.434 500.35 518.132 497.536C522.451 499.609 523.642 507.78 535.976 505.518C543.146 504.203 545.67 494.123 544.546 487.986C548.491 487.195 557.636 484.563 561.409 475.891C563.974 469.995 565.195 461.079 562.591 455.008C566.198 453.051 569.98 447.024 569.449 440.246C568.918 433.468 563.182 427.208 558.672 425.852C559.819 421.55 564.386 414.01 563.043 403.975C561.251 390.594 551.432 389.667 546.243 386.594C549.799 373.256 545.385 362.401 539.145 354.747Z" fill="#220D4E"/>
<path d="M438.388 470.13L442.578 505.19C442.578 505.19 450.648 518.934 470.363 516.39C490.078 513.845 494.036 497.813 494.036 497.813L485.734 405.077L438.388 470.13Z" fill="#8A5353"/>
<path d="M478.88 444.801C469.491 460.067 473.477 465.478 465.237 472.897C463.297 474.644 447.946 480.069 436.748 474.016C425.55 467.963 433.211 458.268 433.211 458.268C435.858 460.016 440.227 465.998 446.567 464.803C451.639 463.847 467.72 454.652 478.88 444.801Z" fill="#220D4E"/>
<path d="M511.853 411.072C511.853 411.072 515.079 373.942 490.044 366.874C452.067 382.91 431.869 363.154 431.869 363.154C431.869 363.154 419.183 372.277 413.75 392.633C409.413 408.885 404.861 433.272 425.337 458.691C445.812 484.11 496.035 470.345 509.495 439.115C533.969 435.795 535.754 400.71 511.853 411.072Z" fill="#8A5353" stroke="#220D4E" stroke-width="2" stroke-miterlimit="10" stroke-linecap="round" stroke-linejoin="round"/>
<path d="M428.994 405.681C430.69 406.111 432.682 404.047 433.442 401.07C434.201 398.094 433.442 395.332 431.745 394.901C430.049 394.471 428.057 396.535 427.298 399.512C426.538 402.488 427.297 405.25 428.994 405.681Z" fill="#220D4E"/>
<path d="M477.044 416.505C478.741 416.936 480.732 414.872 481.492 411.895C482.252 408.918 481.492 406.156 479.796 405.726C478.099 405.295 476.108 407.36 475.348 410.336C474.588 413.313 475.347 416.075 477.044 416.505Z" fill="#220D4E"/>
<path d="M450.804 432.193C450.804 432.193 440.504 432.374 438.553 424.323C436.601 416.271 444.23 414.571 446.591 409.567" fill="#8A5353"/>
<path d="M450.804 432.193C450.804 432.193 440.504 432.374 438.553 424.323C436.601 416.271 444.23 414.571 446.591 409.567C448.952 404.563 448.564 394.733 448.564 394.733" stroke="#220D4E" stroke-width="2" stroke-miterlimit="10" stroke-linecap="round" stroke-linejoin="round"/>
<path d="M439.167 440.613C439.167 440.613 442.964 448.865 452.143 449.243C461.323 449.621 464.61 442.81 464.61 442.81" stroke="#220D4E" stroke-width="2" stroke-miterlimit="10" stroke-linecap="round" stroke-linejoin="round"/>
<path d="M426.773 385.873C426.773 385.873 433.824 382.844 440.642 389.443" stroke="#220D4E" stroke-width="2" stroke-miterlimit="10" stroke-linecap="round" stroke-linejoin="round"/>
<path d="M473.225 396.191C473.225 396.191 480.276 393.162 487.094 399.762" stroke="#220D4E" stroke-width="2" stroke-miterlimit="10" stroke-linecap="round" stroke-linejoin="round"/>
<path d="M464.78 483.133L466.206 462.774L482.678 451.103L482.999 469.92L464.78 483.133Z" fill="#8A5353"/>
<path d="M177.639 620.539C176.604 617.308 179.015 614.005 182.407 614.005H371.364C373.541 614.005 375.468 615.411 376.132 617.484L415.141 739.268C416.176 742.499 413.765 745.802 410.373 745.802H221.416C219.239 745.802 217.312 744.395 216.648 742.322L177.639 620.539Z" fill="#00C2FF"/>
<rect x="209.848" y="737.333" width="278.098" height="8.46883" rx="4.23442" fill="#F4FCFF"/>
<path d="M433.248 737.333H214.083C211.744 737.333 209.848 739.228 209.848 741.567V741.567C209.848 743.906 211.744 745.801 214.083 745.801H483.712C486.051 745.801 487.947 743.906 487.947 741.567V741.567C487.947 739.228 486.051 737.333 483.712 737.333H457.784" stroke="#220D4E" stroke-width="2" stroke-linecap="round" stroke-linejoin="round"/>
<path d="M168.995 616.619C168.581 615.327 169.545 614.006 170.902 614.006H366.168C367.038 614.006 367.809 614.568 368.075 615.398L409.008 743.189C409.422 744.481 408.458 745.802 407.101 745.802H211.836C210.965 745.802 210.194 745.24 209.928 744.411L168.995 616.619Z" fill="#F4FCFF"/>
<path d="M400.082 715.322L407.752 739.269C408.787 742.499 406.377 745.802 402.985 745.802H214.028C211.851 745.802 209.924 744.396 209.26 742.323L170.251 620.539C169.216 617.309 171.626 614.006 175.019 614.006H227.348M387.811 677.011L368.743 617.485C368.08 615.412 366.152 614.006 363.976 614.006H253.654" stroke="#220D4E" stroke-width="2" stroke-linecap="round" stroke-linejoin="round"/>
<ellipse cx="289.32" cy="682.847" rx="13.9121" ry="13.7006" fill="#00EDA6"/>
<path d="M617.414 483.222C614.981 494.177 621.9 505.026 632.881 507.459C636.169 508.187 639.435 508.084 642.485 507.271L634.221 544.485L739.29 567.76C753.612 570.933 767.929 561.825 771.106 547.521L789.687 463.847L741.776 453.233C742.589 456.28 742.69 459.554 741.961 462.838C739.528 473.793 728.679 480.707 717.697 478.274C706.729 475.844 699.81 464.995 702.243 454.04C702.975 450.743 704.45 447.831 706.477 445.413L658.579 434.802L650.312 472.028C647.891 470.004 644.962 468.528 641.688 467.803C630.709 465.357 619.85 472.254 617.414 483.222Z" fill="#00C2FF"/>
<path d="M633.965 544.614L642.229 507.401C639.178 508.214 635.913 508.317 632.625 507.589C621.643 505.156 614.725 494.307 617.158 483.352C619.593 472.384 630.453 465.486 641.431 467.932C644.706 468.658 647.635 470.134 650.055 472.158L658.322 434.932L706.22 445.543C704.193 447.96 702.719 450.872 701.987 454.169C699.554 465.125 706.472 475.974 717.441 478.404C728.422 480.836 739.272 473.923 741.704 462.968C742.434 459.684 742.333 456.409 741.519 453.363L789.431 463.976" stroke="#220D4E" stroke-width="2"/>
<path d="M179.808 173.495L180.22 259.221L229.275 258.958C227.804 256.162 226.984 252.995 226.963 249.638C226.915 238.402 235.977 229.271 247.22 229.204C258.45 229.14 267.609 238.182 267.658 249.419C267.678 252.776 266.874 255.951 265.416 258.756L314.483 258.489L314.305 220.361C317.108 221.803 320.295 222.588 323.658 222.579C334.905 222.524 343.96 213.368 343.902 202.148C343.854 190.911 334.707 181.866 323.461 181.92C320.101 181.942 316.931 182.764 314.136 184.247L313.953 146.106L206.353 146.696C191.679 146.779 179.734 158.833 179.808 173.495Z" fill="#FFD330"/>
<path d="M343.759 203.144C343.478 214.361 334.159 223.226 322.914 222.945C319.548 222.861 316.403 221.974 313.639 220.451L312.682 258.557L361.729 259.785C360.204 262.546 359.317 265.701 359.232 269.063C358.951 280.281 367.826 289.602 379.058 289.883C390.303 290.164 399.621 281.299 399.903 270.082C399.987 266.705 399.259 263.524 397.874 260.69L446.921 261.918L449.072 176.238C449.439 161.59 437.741 149.305 423.075 148.938L315.501 146.244L314.544 184.363C317.382 182.967 320.581 182.24 323.934 182.324C335.166 182.592 344.041 191.912 343.759 203.144Z" fill="#00EDA6"/>
<path d="M180.388 279.996V365.704C180.388 380.356 192.391 392.344 207.061 392.344H314.669V354.227C311.867 355.68 308.688 356.487 305.334 356.487C294.085 356.487 284.979 347.392 284.979 336.17C284.979 324.935 294.085 315.853 305.334 315.853C308.701 315.853 311.867 316.661 314.669 318.114V279.983H265.594C267.062 277.184 267.87 274.009 267.87 270.659C267.87 259.424 258.764 250.342 247.529 250.342C236.28 250.342 227.174 259.424 227.174 270.659C227.174 274.009 227.982 277.184 229.437 279.983H180.388V279.996Z" fill="#9B6BFF"/>
</svg>
